<?xml version="1.0" standalone="no"?>
<!DOCTYPE svg PUBLIC "-//W3C//DTD SVG 20010904//EN"
 "http://www.w3.org/TR/2001/REC-SVG-20010904/DTD/svg10.dtd">
<svg version="1.0" xmlns="http://www.w3.org/2000/svg"
 width="400.000000pt" height="391.000000pt" viewBox="0 0 400.000000 391.000000"
 preserveAspectRatio="xMidYMid meet">
<metadata>
Created by potrace 1.12, written by Peter Selinger 2001-2015
</metadata>
<g transform="translate(0.000000,391.000000) scale(0.100000,-0.100000)"
fill="#000000" stroke="none">
<path d="M0 1955 l0 -1955 2000 0 2000 0 0 1955 0 1955 -2000 0 -2000 0 0
-1955z m1876 1360 c65 -102 121 -185 124 -185 3 0 12 12 21 28 9 15 61 100
116 189 l100 161 42 -36 42 -37 -126 -202 -125 -201 306 -479 c169 -263 414
-644 544 -848 130 -203 349 -545 487 -760 137 -214 271 -423 296 -462 l47 -73
-640 0 -640 0 -2 433 -3 432 -465 0 -465 0 -3 -432 -2 -433 -640 0 -641 0 34
52 c57 88 545 849 797 1243 130 204 375 585 543 848 l307 478 -77 117 c-146
223 -183 282 -183 291 0 12 73 70 81 65 3 -2 60 -87 125 -189z"/>
<path d="M2248 2308 c-47 -63 -116 -175 -128 -210 -10 -26 -10 -43 -3 -65 10
-27 5 -40 -50 -139 -56 -101 -61 -107 -75 -88 -7 10 -79 118 -158 238 -159
243 -185 276 -214 276 -17 0 -20 -7 -20 -41 0 -44 51 -177 98 -256 16 -26 57
-97 92 -158 36 -60 69 -113 75 -117 5 -5 22 -6 36 -3 20 5 28 0 39 -20 12 -23
12 -29 -3 -53 -111 -174 -160 -265 -150 -280 5 -10 19 -18 31 -20 24 -4 75 56
144 168 24 39 45 70 48 70 3 0 34 -48 70 -106 64 -104 109 -152 131 -138 23
14 -2 79 -76 205 l-75 129 43 77 c95 172 122 212 150 224 15 6 41 27 57 46 33
37 130 223 130 249 0 23 -22 12 -45 -23 -42 -64 -45 -67 -25 -26 35 74 21 98
-24 41 l-26 -33 12 32 c7 18 9 36 4 40 -7 7 -21 -6 -69 -69 -12 -16 -12 -13 3
12 21 37 26 70 11 70 -5 0 -20 -15 -33 -32z"/>
</g>
</svg>
